<?xml version="1.0" encoding="UTF-8"?>
<svg id="Layer_1" xmlns="http://www.w3.org/2000/svg" version="1.1" viewBox="0 0 353.08 600">
  <!-- Generator: Adobe Illustrator 29.1.0, SVG Export Plug-In . SVG Version: 2.1.0 Build 142)  -->
  <defs>
    <style>
      .st0 {
        fill: #fff;
      }
    </style>
  </defs>
  <path class="st0" d="M213.39,437.01h-78.99l-.38-24.19c0-32.5,4.28-58.83,12.85-78.99,8.56-20.16,25.19-42.33,49.89-66.52,27.46-27.21,43.97-45.85,49.51-55.94,5.54-10.07,8.31-21.79,8.31-35.15,0-21.92-7.12-39.93-21.35-54.05-14.24-14.11-32.19-21.17-53.86-21.17-46.62,0-75.34,30.99-86.17,92.97l-79.75-12.09c2.27-47.26,18.58-86.03,48.94-116.32,30.36-30.29,68.47-45.44,114.33-45.44s85.42,15.25,116.41,45.73c30.99,30.49,46.49,68.54,46.49,114.14,0,23.18-5.42,45.16-16.25,65.95-10.84,20.79-34.14,49.2-69.92,85.23-18.39,18.65-29.8,33.64-34.2,44.97-4.41,11.34-6.37,31.62-5.86,60.85ZM134.4,579.87v-106.2h86.93v106.2h-86.93Z"/>
</svg>